<?xml version="1.0" encoding="UTF-8" standalone="no"?>
<svg
   xmlns:dc="http://purl.org/dc/elements/1.1/"
   xmlns:cc="http://creativecommons.org/ns#"
   xmlns:rdf="http://www.w3.org/1999/02/22-rdf-syntax-ns#"
   xmlns:svg="http://www.w3.org/2000/svg"
   xmlns="http://www.w3.org/2000/svg"
   viewBox="0 0 1301.2245 1242.2001"
   height="1242.2001"
   width="1301.2245"
   xml:space="preserve"
   id="svg2"
   version="1.1"><metadata
     id="metadata8"><rdf:RDF><cc:Work
         rdf:about=""><dc:format>image/svg+xml</dc:format><dc:type
           rdf:resource="http://purl.org/dc/dcmitype/StillImage" /><dc:title></dc:title></cc:Work></rdf:RDF></metadata><defs
     id="defs6" /><g
     transform="matrix(1.3333333,0,0,-1.3333333,-1.8111871e-4,1242.1995)"
     id="g10"><path
       d="m 707.411,539.917 c 0,-46.468 -34.6,-84.144 -77.265,-84.144 -42.676,0 -77.265,37.676 -77.265,84.144 0,46.492 34.589,84.19 77.265,84.19 42.665,0 77.265,-37.698 77.265,-84.19"
       style="fill:#1c4f9c;fill-opacity:1;fill-rule:nonzero;stroke:none;stroke-width:0.1"
       id="path136" /><path
       d="m 489.613,474.748 c 0,-43.963 -34.59,-79.59 -77.277,-79.59 -42.664,0 -77.254,35.627 -77.254,79.59 0,43.963 34.59,79.588 77.254,79.588 42.687,0 77.277,-35.625 77.277,-79.588"
       style="fill:#1c4f9c;fill-opacity:1;fill-rule:nonzero;stroke:none;stroke-width:0.1"
       id="path138" /><path
       d="m 546.617,634.95 c 0,-32.277 -26.082,-58.45 -58.291,-58.45 -32.186,0 -58.291,26.173 -58.291,58.45 0,32.278 26.105,58.45 58.291,58.45 32.209,0 58.291,-26.172 58.291,-58.45"
       style="fill:#1c4f9c;fill-opacity:1;fill-rule:nonzero;stroke:none;stroke-width:0.1"
       id="path140" /><path
       d="m 612.766,380.694 c 0,-32.277 -26.093,-58.426 -58.29,-58.426 -32.199,0 -58.291,26.149 -58.291,58.426 0,32.278 26.092,58.451 58.291,58.451 32.197,0 58.29,-26.173 58.29,-58.451"
       style="fill:#1c4f9c;fill-opacity:1;fill-rule:nonzero;stroke:none;stroke-width:0.1"
       id="path142" /><path
       d="m 632.402,717.887 c 0,-21.799 -17.643,-39.475 -39.408,-39.475 -21.765,0 -39.407,17.676 -39.407,39.475 0,21.8 17.642,39.476 39.407,39.476 21.765,0 39.408,-17.676 39.408,-39.476"
       style="fill:#2857af;fill-opacity:1;fill-rule:nonzero;stroke:none;stroke-width:0.1"
       id="path144" /><path
       d="m 385.936,635.428 c -0.957,-21.799 -22.004,-38.564 -46.993,-37.471 -24.988,1.116 -44.463,19.681 -43.484,41.457 0.957,21.8 21.993,38.565 46.97,37.472 25,-1.116 44.464,-19.658 43.507,-41.458"
       style="fill:#2857af;fill-opacity:1;fill-rule:nonzero;stroke:none;stroke-width:0.1"
       id="path146" /><path
       d="m 313.477,733.195 c -1.253,-14.852 -17.927,-25.581 -37.232,-23.941 -19.316,1.617 -33.94,14.988 -32.675,29.863 1.252,14.852 17.926,25.58 37.219,23.941 19.316,-1.641 33.941,-15.012 32.688,-29.863"
       style="fill:#5788c2;fill-opacity:1;fill-rule:nonzero;stroke:none;stroke-width:0.1"
       id="path148" /><path
       d="m 873.673,689.346 c -1.367,-16.036 -18.997,-27.631 -39.384,-25.9 -20.387,1.731 -35.831,16.127 -34.465,32.163 1.356,16.037 18.987,27.654 39.385,25.923 20.387,-1.731 35.831,-16.128 34.464,-32.186"
       style="fill:#5788c2;fill-opacity:1;fill-rule:nonzero;stroke:none;stroke-width:0.1"
       id="path150" /><path
       d="m 776.613,672.421 c 7.004,-17.836 -7.722,-40.341 -32.915,-50.227 -25.182,-9.886 -51.275,-3.44 -58.28,14.419 -7.027,17.858 7.711,40.341 32.882,50.227 25.204,9.886 51.297,3.439 58.313,-14.419"
       style="fill:#2857af;fill-opacity:1;fill-rule:nonzero;stroke:none;stroke-width:0.1"
       id="path152" /><path
       d="m 657.162,811.485 c -1.971,-14.009 -19.225,-23.189 -38.542,-20.478 -19.328,2.71 -33.382,16.264 -31.423,30.296 1.97,14.009 19.237,23.188 38.541,20.477 19.328,-2.733 33.383,-16.286 31.424,-30.295"
       style="fill:#5788c2;fill-opacity:1;fill-rule:nonzero;stroke:none;stroke-width:0.1"
       id="path154" /><path
       d="m 631.764,907.133 c -1.162,-12.005 -14.26,-20.524 -29.226,-19.067 -14.965,1.459 -26.149,12.37 -24.965,24.374 1.161,11.981 14.259,20.523 29.214,19.043 14.977,-1.458 26.161,-12.369 24.977,-24.35"
       style="fill:#bbd9f3;fill-opacity:1;fill-rule:nonzero;stroke:none;stroke-width:0.1"
       id="path156" /><path
       d="m 223.513,802.852 c -0.9,-10.752 -14.75,-18.383 -30.9,-16.993 -16.15,1.367 -28.496,11.184 -27.608,21.936 0.911,10.751 14.761,18.359 30.911,16.993 16.15,-1.367 28.508,-11.184 27.597,-21.936"
       style="fill:#bbd9f3;fill-opacity:1;fill-rule:nonzero;stroke:none;stroke-width:0.1"
       id="path158" /><path
       d="m 975.904,712.785 c -0.547,-12.916 -16.287,-22.756 -35.17,-21.959 -18.861,0.797 -33.713,11.891 -33.178,24.829 0.536,12.893 16.276,22.733 35.159,21.936 18.861,-0.798 33.735,-11.913 33.189,-24.806"
       style="fill:#bbd9f3;fill-opacity:1;fill-rule:nonzero;stroke:none;stroke-width:0.1"
       id="path160" /><path
       d="m 487.232,286.709 c 0,-23.849 -22.778,-43.211 -50.853,-43.211 -28.074,0 -50.853,19.362 -50.853,43.211 0,23.85 22.779,43.189 50.853,43.189 28.075,0 50.853,-19.339 50.853,-43.189"
       style="fill:#2857af;fill-opacity:1;fill-rule:nonzero;stroke:none;stroke-width:0.1"
       id="path162" /><path
       d="m 352.178,359.807 c 13.474,-25.286 7.357,-54.874 -13.667,-66.059 -21.025,-11.207 -48.986,0.228 -62.459,25.535 -13.463,25.307 -7.358,54.873 13.667,66.081 21.024,11.185 48.974,-0.251 62.459,-25.557"
       style="fill:#2857af;fill-opacity:1;fill-rule:nonzero;stroke:none;stroke-width:0.1"
       id="path164" /><path
       d="m 232.681,332.404 c 15.432,-14.738 18.815,-36.242 7.562,-48.063 -11.263,-11.8 -32.915,-9.431 -48.359,5.307 -15.432,14.715 -18.814,36.218 -7.562,48.041 11.275,11.799 32.915,9.43 48.359,-5.285"
       style="fill:#5788c2;fill-opacity:1;fill-rule:nonzero;stroke:none;stroke-width:0.1"
       id="path166" /><path
       d="m 431.721,155.322 c 9.35,-13.234 30.82,-14.168 47.972,-2.073 17.129,12.096 23.439,32.642 14.1,45.876 -9.362,13.258 -30.819,14.169 -47.972,2.073 -17.13,-12.096 -23.439,-32.641 -14.1,-45.876"
       style="fill:#5788c2;fill-opacity:1;fill-rule:nonzero;stroke:none;stroke-width:0.1"
       id="path168" /><path
       d="m 515.843,102.316 c 2.311,-12.0504 -9.316,-24.4187 -25.98,-27.6305 -16.662,-3.1894 -32.038,3.9864 -34.35,16.0586 -2.312,12.0509 9.305,24.4189 25.979,27.6079 16.652,3.189 32.028,-3.986 34.351,-16.036"
       style="fill:#63a1d9;fill-opacity:1;fill-rule:nonzero;stroke:none;stroke-width:0.1"
       id="path170" /><path
       d="M 531.446,22.2488 C 532.403,11.293 521.264,1.40625 506.595,0.130859 491.925,-1.12227 479.26,6.73633 478.326,17.6934 c -0.957,10.957 10.182,20.8418 24.852,22.1179 14.669,1.2754 27.334,-6.6062 28.268,-17.5625"
       style="fill:#bbd9f3;fill-opacity:1;fill-rule:nonzero;stroke:none;stroke-width:0.1"
       id="path172" /><path
       d="m 154.117,259.58 c -6.424,-10.273 -27.129,-8.93 -46.263,3.007 -19.1341,11.936 -29.4532,29.954 -23.052,40.204 6.423,10.296 27.129,8.952 46.264,-2.984 19.145,-11.936 29.452,-29.953 23.051,-40.227"
       style="fill:#63a1d9;fill-opacity:1;fill-rule:nonzero;stroke:none;stroke-width:0.1"
       id="path174" /><path
       d="m 66.3059,230.72 c -5.4676,-8.747 -24.3965,-6.788 -42.3004,4.373 -17.90394,11.162 -27.9723,27.311 -22.52777,36.059 5.4668,8.746 24.39527,6.811 42.29957,-4.374 17.904,-11.161 27.9723,-27.311 22.5286,-36.058"
       style="fill:#bbd9f3;fill-opacity:1;fill-rule:nonzero;stroke:none;stroke-width:0.1"
       id="path176" /></g></svg>