<?xml version="1.0" encoding="UTF-8" standalone="no"?>
<svg
   xmlns:dc="http://purl.org/dc/elements/1.1/"
   xmlns:cc="http://creativecommons.org/ns#"
   xmlns:rdf="http://www.w3.org/1999/02/22-rdf-syntax-ns#"
   xmlns:svg="http://www.w3.org/2000/svg"
   xmlns="http://www.w3.org/2000/svg"
   viewBox="0 0 128.00001 85"
   height="85"
   width="128"
   xml:space="preserve"
   version="1.1"
   id="svg2"><metadata
     id="metadata8"><rdf:RDF><cc:Work
         rdf:about=""><dc:format>image/svg+xml</dc:format><dc:type
           rdf:resource="http://purl.org/dc/dcmitype/StillImage" /><dc:title></dc:title></cc:Work></rdf:RDF></metadata><defs
     id="defs6"><clipPath
       id="clipPath16"
       clipPathUnits="userSpaceOnUse"><path
         id="path18"
         d="m 0,108 154.667,0 0,-108 L 0,0 0,108 Z" /></clipPath></defs><g
     transform="matrix(1.25,0,0,-1.25,-22.839375,105.0075)"
     id="g10"><g
       transform="matrix(0.88231886,0,0,0.84458281,2.5239482,4.4613451)"
       id="g12"><g
         clip-path="url(#clipPath16)"
         id="g14"><g
           transform="translate(80.9224,75.6758)"
           id="g20"><path
             id="path22"
             style="fill:#ed6a1c;fill-opacity:1;fill-rule:nonzero;stroke:none"
             d="m 0,0 c 0,-2.812 -2.279,-5.091 -5.091,-5.091 -2.811,0 -5.091,2.279 -5.091,5.091 0,2.812 2.28,5.091 5.091,5.091 C -2.279,5.091 0,2.812 0,0" /></g><g
           transform="translate(133.2217,39.084)"
           id="g24"><path
             id="path26"
             style="fill:#2d4b9a;fill-opacity:1;fill-rule:nonzero;stroke:none"
             d="M 0,0 -14.656,0 -23.079,-8.423 -31.502,0 -38.046,0 -57.416,-19.37 -76.786,0 l -6.492,0 -8.423,-8.423 -8.423,8.423 -14.655,0 -0.171,0 0.175,-0.174 c 0.094,-12.666 10.387,-22.904 23.074,-22.904 l 68.623,0 c 12.687,0 22.98,10.239 23.074,22.905 L 0.17,0 0,0 Z" /></g><g
           transform="translate(88.645,61.5244)"
           id="g28"><path
             id="path30"
             style="fill:#2d4b9a;fill-opacity:1;fill-rule:nonzero;stroke:none"
             d="m 0,0 c -1.167,-2.021 -1.75,-4.633 -1.75,-7.836 l 0,-10.854 19.539,0 0,13.414 c 0,3.099 1.218,4.649 3.658,4.649 2.506,0 3.76,-1.795 3.76,-5.382 l 0,-12.681 19.539,0 0,11.585 c 0,3.099 -0.471,5.608 -1.411,7.524 -0.941,1.913 -2.595,3.673 -4.962,5.275 2.332,1.532 3.978,3.299 4.937,5.304 0.957,2.002 1.436,4.64 1.436,7.914 l 0,11.842 -19.539,0 0,-13.566 c 0,-3.101 -1.237,-4.651 -3.709,-4.651 -1.081,0 -1.967,0.437 -2.665,1.307 -0.697,0.87 -1.044,1.986 -1.044,3.344 l 0,13.566 -19.539,0 0,-11.111 C -1.75,16.405 -1.167,13.74 0,11.65 1.166,9.56 3.195,7.575 6.085,5.694 3.195,3.918 1.166,2.02 0,0" /></g><g
           transform="translate(37.8105,42.834)"
           id="g32"><path
             id="path34"
             style="fill:#2d4b9a;fill-opacity:1;fill-rule:nonzero;stroke:none"
             d="m 0,0 0,25.662 c 0,2.996 1.219,4.494 3.657,4.494 2.473,0 3.709,-1.498 3.709,-4.494 l 0,-25.662 19.539,0 0,23.73 c 0,7.523 -1.759,13.39 -5.277,17.606 -4.492,5.398 -10.466,8.097 -17.918,8.097 -6.514,0 -12.017,-2.325 -16.51,-6.973 -4.492,-4.65 -6.739,-10.371 -6.739,-17.163 L -19.539,0 0,0 Z" /></g></g></g></g></svg>